<svg id="Layer_1" data-name="Layer 1" xmlns="http://www.w3.org/2000/svg" viewBox="0 0 122.88 122.88"><title>scale-ruler</title><path d="M91.87.85,122,31a2.94,2.94,0,0,1,.35.44,2.82,2.82,0,0,1,.49,1.6,2.85,2.85,0,0,1-.84,2l-87,87a3,3,0,0,1-.54.41,2.77,2.77,0,0,1-1.49.43,2.9,2.9,0,0,1-2-.84L.84,91.88a2.89,2.89,0,0,1,0-4.07l87-87a2.88,2.88,0,0,1,2-.84,2.82,2.82,0,0,1,2,.85ZM37.27,112.23l-7.91-7.91,3.8-3.8,7.91,7.91,4.25-4.25L31,89.84l3.8-3.8,14.34,14.34,4.25-4.24-7.91-7.92,3.8-3.8,7.91,7.91,4.25-4.24L47.07,73.74l3.8-3.8L65.22,84.29,69.47,80l-7.91-7.91,3.8-3.8,7.91,7.91L77.52,72,63.17,57.64l3.8-3.8L81.32,68.19l4.24-4.25L77.65,56l3.8-3.8,7.91,7.91,4.25-4.25L79.27,41.55l3.8-3.8L97.41,52.09,116.47,33,89.84,6.41,6.41,89.84,33,116.47l4.23-4.24ZM98,28.56a3.69,3.69,0,0,0-3.69-3.69,3.69,3.69,0,0,0-2.61,6.3l.08.09a3.71,3.71,0,0,0,5.14-.09l.08-.08a3.68,3.68,0,0,0,1-2.53Zm1.71-5.4a7.63,7.63,0,0,1,.12,10.68l-.12.13A7.64,7.64,0,0,1,89,34.08L88.91,34a7.64,7.64,0,0,1,10.81-10.8Z"/></svg>