# Blender 4.2.1 LTS
# www.blender.org
mtllib sorting_test.mtl
o Cube.001
v 8.122441 -2.665482 -2.199780
v 8.122441 2.665484 -2.199778
v -8.122441 -2.665482 -2.199782
v -8.122441 2.665484 -2.199780
v 8.122442 -2.665481 -7.530746
v 8.122442 2.665485 -7.530744
v -8.122440 -2.665481 -7.530748
v -8.122440 2.665485 -7.530746
v -15.783226 13.899879 -15.783223
v -17.600000 -2.199383 -17.600002
v 15.783230 13.899879 -15.783219
v 17.600004 -2.199383 -17.599998
v -15.783230 13.899869 15.783231
v -17.600004 -2.199395 17.600000
v 15.783226 13.899869 15.783235
v 17.600000 -2.199395 17.600004
v 17.600004 13.800618 -17.599995
v 17.600000 13.800607 17.600008
v -17.600000 13.800618 -17.599998
v -17.600004 13.800607 17.600004
v 15.783230 -0.175423 -15.783224
v 15.783226 -0.175433 15.783230
v -15.783226 -0.175423 -15.783228
v -15.783230 -0.175433 15.783226
v 6.691334 2.804011 -2.669414
v 6.691334 7.195705 -2.669413
v -6.691333 2.804011 -2.669416
v -6.691333 7.195705 -2.669415
v 6.691335 2.804012 -7.061108
v 6.691335 7.195706 -7.061107
v -6.691333 2.804012 -7.061110
v -6.691333 7.195706 -7.061109
v 8.122441 -2.665485 7.045201
v 8.122441 2.665481 7.045203
v -8.122443 -2.665485 7.045198
v -8.122443 2.665481 7.045200
v 8.122442 -2.665483 1.714234
v 8.122442 2.665483 1.714236
v -8.122442 -2.665483 1.714232
v -8.122442 2.665483 1.714234
v 6.691333 2.804008 6.575567
v 6.691333 7.195702 6.575568
v -6.691335 2.804008 6.575565
v -6.691335 7.195702 6.575566
v 6.691333 2.804009 2.183873
v 6.691333 7.195704 2.183874
v -6.691334 2.804009 2.183871
v -6.691334 7.195704 2.183872
v 8.122440 -2.665488 15.615585
v 8.122440 2.665478 15.615587
v -8.122444 -2.665488 15.615583
v -8.122444 2.665478 15.615585
v 8.122440 -2.665486 10.284618
v 8.122440 2.665480 10.284620
v -8.122444 -2.665486 10.284616
v -8.122444 2.665480 10.284618
v 6.691331 2.804005 15.145950
v 6.691331 7.195699 15.145951
v -6.691336 2.804005 15.145948
v -6.691336 7.195699 15.145949
v 6.691332 2.804006 10.754255
v 6.691332 7.195701 10.754256
v -6.691335 2.804006 10.754253
v -6.691335 7.195701 10.754254
vn -0.0000 -0.0000 1.0000
vn -1.0000 -0.0000 -0.0000
vn -0.0000 -0.0000 -1.0000
vn 1.0000 -0.0000 -0.0000
vn -0.0000 -1.0000 -0.0000
vn -0.0000 1.0000 -0.0000
vn -0.0000 0.6680 -0.7442
vn 0.0546 0.9985 -0.0000
vn -0.7071 -0.0000 -0.7071
vn -0.0000 0.9985 0.0546
vn -0.0546 0.9985 -0.0000
vn 0.7071 -0.0000 -0.7071
vt 0.375000 0.000000
vt 0.625000 0.000000
vt 0.625000 0.250000
vt 0.375000 0.250000
vt 0.625000 0.500000
vt 0.375000 0.500000
vt 0.625000 0.750000
vt 0.375000 0.750000
vt 0.625000 1.000000
vt 0.375000 1.000000
vt 0.125000 0.500000
vt 0.125000 0.750000
vt 0.875000 0.500000
vt 0.875000 0.750000
vt 0.815610 0.670937
vt 1.086685 0.728059
vt 1.066389 0.553695
vt 0.851135 0.506484
vt 0.286824 0.345736
vt 0.332150 0.541159
vt 0.086713 0.717651
vt 0.066236 0.538218
vt 1.066236 0.538218
vt 1.086713 0.717651
vt 0.816752 0.660765
vt 0.852741 0.491363
vt 0.621682 0.280820
vt 0.289035 0.361544
vt 0.620623 0.297043
vt 0.589978 0.486593
vt 0.333337 0.554977
vt 0.086685 0.728059
vt 0.589978 0.500567
vt 0.066389 0.553695
s 0
usemtl Material.003
f 1/1/1 2/2/1 4/3/1 3/4/1
f 3/4/2 4/3/2 8/5/2 7/6/2
f 7/6/3 8/5/3 6/7/3 5/8/3
f 5/8/4 6/7/4 2/9/4 1/10/4
f 3/11/5 7/6/5 5/8/5 1/12/5
f 8/5/6 4/13/6 2/14/6 6/7/6
f 33/1/1 34/2/1 36/3/1 35/4/1
f 35/4/2 36/3/2 40/5/2 39/6/2
f 39/6/3 40/5/3 38/7/3 37/8/3
f 37/8/4 38/7/4 34/9/4 33/10/4
f 35/11/5 39/6/5 37/8/5 33/12/5
f 40/5/6 36/13/6 34/14/6 38/7/6
f 49/1/1 50/2/1 52/3/1 51/4/1
f 51/4/2 52/3/2 56/5/2 55/6/2
f 55/6/3 56/5/3 54/7/3 53/8/3
f 53/8/4 54/7/4 50/9/4 49/10/4
f 51/11/5 55/6/5 53/8/5 49/12/5
f 56/5/6 52/13/6 50/14/6 54/7/6
usemtl Material.004
f 13/15/3 15/16/3 22/17/3 24/18/3
f 12/19/4 17/20/4 18/21/4 16/22/4
f 16/23/1 18/24/1 20/25/1 14/26/1
f 14/26/5 10/27/5 12/19/5 16/23/5
f 21/28/7 12/19/7 23/29/7
f 14/26/2 20/25/2 19/30/2 10/27/2
f 11/31/8 15/32/8 18/21/8 17/20/8
f 12/19/9 11/31/9 17/20/9
f 15/16/10 13/15/10 20/25/10 18/24/10
f 13/15/11 9/33/11 19/30/11 20/25/11
f 23/29/6 24/18/6 22/17/6 21/28/6
f 15/32/2 11/31/2 21/28/2 22/34/2
f 9/33/4 13/15/4 24/18/4 23/29/4
f 21/28/9 11/31/9 12/19/9
f 10/27/7 23/29/7 12/19/7
f 23/29/12 10/27/12 9/33/12
f 10/27/12 19/30/12 9/33/12
usemtl Material.005
f 25/1/1 26/2/1 28/3/1 27/4/1
f 27/4/2 28/3/2 32/5/2 31/6/2
f 31/6/3 32/5/3 30/7/3 29/8/3
f 29/8/4 30/7/4 26/9/4 25/10/4
f 27/11/5 31/6/5 29/8/5 25/12/5
f 32/5/6 28/13/6 26/14/6 30/7/6
usemtl Material.006
f 41/1/1 42/2/1 44/3/1 43/4/1
f 43/4/2 44/3/2 48/5/2 47/6/2
f 47/6/3 48/5/3 46/7/3 45/8/3
f 45/8/4 46/7/4 42/9/4 41/10/4
f 43/11/5 47/6/5 45/8/5 41/12/5
f 48/5/6 44/13/6 42/14/6 46/7/6
usemtl Material.007
f 57/1/1 58/2/1 60/3/1 59/4/1
f 59/4/2 60/3/2 64/5/2 63/6/2
f 63/6/3 64/5/3 62/7/3 61/8/3
f 61/8/4 62/7/4 58/9/4 57/10/4
f 59/11/5 63/6/5 61/8/5 57/12/5
f 64/5/6 60/13/6 58/14/6 62/7/6
