{
    "asset": {
        "generator": "FBX2glTF",
        "version": "2.0"
    },
    "scene": 0,
    "buffers": [
        {
            "byteLength": 1078636,
            "uri": "buffer.bin"
        }
    ],
    "bufferViews": [
        {
            "buffer": 0,
            "byteLength": 201258,
            "byteOffset": 0,
            "target": 34963
        },
        {
            "buffer": 0,
            "byteLength": 329016,
            "byteOffset": 201260,
            "target": 34962
        },
        {
            "buffer": 0,
            "byteLength": 329016,
            "byteOffset": 530276,
            "target": 34962
        },
        {
            "buffer": 0,
            "byteLength": 219344,
            "byteOffset": 859292,
            "target": 34962
        }
    ],
    "scenes": [
        {
            "name": "Root Scene",
            "nodes": [
                0
            ]
        }
    ],
    "accessors": [
        {
            "componentType": 5123,
            "type": "SCALAR",
            "count": 100629,
            "bufferView": 0,
            "byteOffset": 0
        },
        {
            "componentType": 5126,
            "type": "VEC3",
            "count": 27418,
            "bufferView": 1,
            "byteOffset": 0,
            "min": [
                -0.199931219220161,
                -0.365488052368164,
                -0.47208708524704
            ],
            "max": [
                0.125203162431717,
                1.19557273387909,
                0.187788039445877
            ]
        },
        {
            "componentType": 5126,
            "type": "VEC3",
            "count": 27418,
            "bufferView": 2,
            "byteOffset": 0
        },
        {
            "componentType": 5126,
            "type": "VEC2",
            "count": 27418,
            "bufferView": 3,
            "byteOffset": 0
        }
    ],
    "images": [
        {
            "uri": "cerberus_A.jpg"
        },
        {
            "uri": "cerberus_MR.jpg"
        },
        {
            "uri": "cerberus_N.jpg"
        }
    ],
    "textures": [
        {
            "source": 0
        },
        {
            "source": 1
        },
        {
            "source": 2
        }
    ],
    "materials": [
        {
            "name": "Cerberus_Mat",
            "alphaMode": "OPAQUE",
            "pbrMetallicRoughness": {
                "baseColorTexture": {
                    "index": 0
                },
                "metallicRoughnessTexture": {
                  "index": 1
                }
            },
            "normalTexture": {
                "index": 2
            }
        }
    ],
    "meshes": [
        {
            "name": "Cerberus00_Fixed",
            "primitives": [
                {
                    "material": 0,
                    "mode": 4,
                    "attributes": {
                        "NORMAL": 2,
                        "POSITION": 1,
                        "TEXCOORD_0": 3
                    },
                    "indices": 0
                }
            ]
        }
    ],
    "nodes": [
        {
            "name": "RootNode",
            "translation": [
                0.0,
                0.0,
                0.0
            ],
            "rotation": [
                0.0,
                0.0,
                0.0,
                1.0
            ],
            "scale": [
                1.0,
                1.0,
                1.0
            ],
            "children": [
                1
            ]
        },
        {
            "name": "Cerberus00_Fixed",
            "translation": [
                0.0,
                0.0,
                0.0
            ],
            "rotation": [
                -0.70710676908493,
                -0.0,
                0.0,
                0.70710676908493
            ],
            "scale": [
                1.0,
                1.0,
                1.0
            ],
            "mesh": 0
        }
    ]
}